<svg width="26" height="20" viewBox="0 0 26 20" fill="none" xmlns="http://www.w3.org/2000/svg">
<path d="M21.6246 1.64942C19.9892 0.868966 18.2591 0.314276 16.48 0C16.258 0.408222 15.9999 0.958877 15.8204 1.39508C13.9306 1.10131 12.0081 1.10131 10.1184 1.39508C9.92022 0.918418 9.69755 0.452746 9.4513 0C7.67065 0.314794 5.93921 0.87079 4.30293 1.65324C1.04732 6.67144 0.164524 11.565 0.60592 16.3887C2.50636 17.8522 4.64158 18.9679 6.91639 19.6862C7.4275 18.9688 7.87958 18.2096 8.26801 17.4162C7.5292 17.129 6.81692 16.7754 6.13958 16.3594C6.31789 16.2246 6.49245 16.0834 6.66078 15.9385C10.7643 17.8956 15.2219 17.8956 19.2767 15.9385C19.4476 16.0834 19.6221 16.2246 19.7979 16.3594C19.1234 16.774 18.4089 17.1301 17.6658 17.4175C18.0535 18.2112 18.5056 18.9705 19.0174 19.6875C21.294 18.9697 23.4307 17.8529 25.3316 16.3874C25.8491 10.7969 24.4476 5.94784 21.6246 1.64942V1.64942ZM8.82661 13.4217C7.59469 13.4217 6.58472 12.2492 6.58472 10.8211C6.58472 9.39292 7.5735 8.21786 8.82661 8.21786C10.0797 8.21786 11.0897 9.39038 11.0685 10.8211C11.0698 12.2492 10.0797 13.4217 8.82661 13.4217ZM17.1109 13.4217C15.879 13.4217 14.869 12.2492 14.869 10.8211C14.869 9.39292 15.8578 8.21786 17.1109 8.21786C18.364 8.21786 19.374 9.39038 19.3528 10.8211C19.3528 12.2492 18.364 13.4217 17.1109 13.4217Z" fill="white"/>
</svg>
