<svg width="172" height="43" viewBox="0 0 172 43" fill="none" xmlns="http://www.w3.org/2000/svg">
<path d="M1.18636 30.9906H3.95454C4.83671 30.9906 5.11049 30.6865 5.11049 29.7434V24.1158C5.11049 22.0777 5.08007 20.3438 4.16748 16.6326H4.44126C4.98881 18.6099 5.5972 20.5567 6.23601 21.956L7.78741 25.576C8.06118 26.2452 8.3958 26.4581 9.12587 26.4581H11.0119C11.8028 26.4581 12.0766 26.1844 12.3503 25.576L13.8713 21.956C14.5101 20.4959 15.2402 18.4578 15.7878 16.6326H16.0615C14.9968 20.2221 15.0577 22.169 15.0577 24.0854V29.7434C15.0577 30.6865 15.3619 30.9906 16.2745 30.9906H19.1339C20.0465 30.9906 20.3203 30.6865 20.3203 29.7434V10.64C20.3203 9.69695 20.0465 9.39276 19.1339 9.39276H16.2136C15.301 9.39276 15.0273 9.51443 14.6622 10.3662L10.0993 20.5872L5.5972 10.3358C5.26258 9.54485 4.92797 9.39276 3.95454 9.39276H1.18636C0.334615 9.39276 0 9.69695 0 10.64V29.7434C0 30.6865 0.334615 30.9906 1.18636 30.9906Z" fill="url(#paint0_linear_532_3)"/>
<path d="M34.1666 31.4469C39.6726 31.4469 42.7449 28.2529 42.7449 23.112V17.2714C42.7449 12.1305 39.6726 8.93646 34.1666 8.93646C28.6607 8.93646 25.5883 12.1305 25.5883 17.2714V23.112C25.5883 28.2529 28.6607 31.4469 34.1666 31.4469ZM34.1666 26.5798C32.0981 26.5798 31.003 25.4543 31.003 23.2945V17.0889C31.003 14.9291 32.0981 13.8036 34.1666 13.8036C36.2352 13.8036 37.3303 14.9291 37.3303 17.0889V23.2945C37.3303 25.4543 36.2352 26.5798 34.1666 26.5798Z" fill="url(#paint1_linear_532_3)"/>
<path d="M56.0247 31.4469C61.5307 31.4469 64.6031 28.2529 64.6031 23.112V17.2714C64.6031 12.1305 61.5307 8.93646 56.0247 8.93646C50.5188 8.93646 47.4464 12.1305 47.4464 17.2714V23.112C47.4464 28.2529 50.5188 31.4469 56.0247 31.4469ZM56.0247 26.5798C53.9562 26.5798 52.8611 25.4543 52.8611 23.2945V17.0889C52.8611 14.9291 53.9562 13.8036 56.0247 13.8036C58.0933 13.8036 59.1884 14.9291 59.1884 17.0889V23.2945C59.1884 25.4543 58.0933 26.5798 56.0247 26.5798Z" fill="url(#paint2_linear_532_3)"/>
<path d="M71.0385 30.9906H73.8371C74.7496 30.9906 75.0234 30.656 75.0234 29.7434V23.4466C75.0234 20.4351 74.7192 18.3969 74.2325 16.2067H74.4454C75.1755 18.5186 75.6318 20.07 76.7269 22.169L81.0465 30.3823C81.2594 30.8081 81.5636 30.9906 82.172 30.9906H85.4269C86.3091 30.9906 86.6133 30.656 86.6133 29.7434V10.64C86.6133 9.72737 86.3091 9.39276 85.4269 9.39276H82.6283C81.7157 9.39276 81.4115 9.72737 81.4115 10.64V16.9368C81.4115 19.8571 81.9591 21.6214 82.5979 24.0854H82.3545C81.6245 21.9865 81.229 20.5263 80.0731 18.3665L75.6318 10.0011C75.4189 9.57527 75.0843 9.39276 74.4759 9.39276H71.0385C70.1867 9.39276 69.8521 9.72737 69.8521 10.64V29.7434C69.8521 30.656 70.1867 30.9906 71.0385 30.9906Z" fill="url(#paint3_linear_532_3)"/>
<path d="M93.64 30.9906H104.561C105.473 30.9906 105.777 30.656 105.777 29.7434V27.3707C105.777 26.4277 105.473 26.1235 104.561 26.1235H97.8379V10.64C97.8379 9.72737 97.5337 9.39276 96.6211 9.39276H93.64C92.7578 9.39276 92.4232 9.72737 92.4232 10.64V29.7434C92.4232 30.656 92.7578 30.9906 93.64 30.9906Z" fill="url(#paint4_linear_532_3)"/>
<path d="M109.481 30.9906H112.31C113.679 30.9906 114.074 30.7169 114.317 29.8043L115.047 27.2186H121.253L121.922 29.8043C122.166 30.7169 122.592 30.9906 124.021 30.9906H126.942C127.793 30.9906 128.037 30.5648 127.763 29.7739L121.314 10.3662C121.071 9.60569 120.645 9.39276 119.854 9.39276H116.599C115.778 9.39276 115.413 9.57527 115.139 10.427L108.72 29.7739C108.446 30.5648 108.629 30.9906 109.481 30.9906ZM120.067 22.8382H116.295L117.359 18.6707C117.755 17.1497 117.968 15.355 118.059 14.4424H118.272C118.363 15.355 118.607 17.1193 119.002 18.6707L120.067 22.8382Z" fill="url(#paint5_linear_532_3)"/>
<path d="M133.256 30.9906H136.055C136.967 30.9906 137.241 30.656 137.241 29.7434V23.4466C137.241 20.4351 136.937 18.3969 136.45 16.2067H136.663C137.393 18.5186 137.849 20.07 138.944 22.169L143.264 30.3823C143.477 30.8081 143.781 30.9906 144.39 30.9906H147.644C148.527 30.9906 148.831 30.656 148.831 29.7434V10.64C148.831 9.72737 148.527 9.39276 147.644 9.39276H144.846C143.933 9.39276 143.629 9.72737 143.629 10.64V16.9368C143.629 19.8571 144.177 21.6214 144.815 24.0854H144.572C143.842 21.9865 143.447 20.5263 142.291 18.3665L137.849 10.0011C137.636 9.57527 137.302 9.39276 136.693 9.39276H133.256C132.404 9.39276 132.07 9.72737 132.07 10.64V29.7434C132.07 30.656 132.404 30.9906 133.256 30.9906Z" fill="url(#paint6_linear_532_3)"/>
<path d="M155.827 30.9906H162.611C168.147 30.9906 171.219 27.7966 171.219 22.6557V17.7277C171.219 12.5868 168.147 9.39276 162.611 9.39276H155.827C154.975 9.39276 154.641 9.72737 154.641 10.64V29.7434C154.641 30.656 154.975 30.9906 155.827 30.9906ZM162.398 26.1235H160.055V14.2599H162.398C164.892 14.2599 165.805 15.4462 165.805 17.7581V22.6253C165.805 24.9372 164.892 26.1235 162.398 26.1235Z" fill="url(#paint7_linear_532_3)"/>
<path d="M64.1468 30.7023C58.7238 40.8782 46.0809 44.729 35.9051 39.306C25.7292 33.883 21.8748 21.2365 27.2978 11.0642C32.7208 0.88838 45.3673 -2.96606 55.5431 2.45696C65.719 7.87998 69.5698 20.5265 64.1468 30.7023Z" fill="url(#paint8_radial_532_3)"/>
<g style="mix-blend-mode:multiply" opacity="0.1">
<path d="M62.5385 8.50187C66.3893 14.0517 67.074 21.507 63.6796 27.8791C58.8471 36.9465 47.5772 40.3807 38.5098 35.5481C29.4425 30.7156 26.0082 19.4457 30.8408 10.3747C35.6335 1.38709 46.7476 -2.06524 55.7751 2.58617C55.6954 2.5427 55.6193 2.49923 55.5396 2.45938C45.3674 -2.96726 32.7209 0.887176 27.2979 11.063C21.8749 21.2389 25.7293 33.8817 35.9015 39.3048C46.0774 44.7278 58.7203 40.877 64.1433 30.7011C68.0484 23.3762 67.1464 14.7726 62.5349 8.50187H62.5385Z" fill="#9899BD"/>
</g>
<path opacity="0.4" d="M63.4495 22.0728C59.9827 28.579 51.3863 30.767 44.2462 26.9633C37.106 23.1596 34.1319 14.7986 37.5987 8.29245C41.0655 1.78627 49.6619 -0.401773 56.8021 3.40195C63.9422 7.20567 66.9163 15.5666 63.4495 22.0692V22.0728Z" fill="white"/>
<path opacity="0.6" d="M61.4591 15.3773C59.3507 19.3368 54.1197 20.6663 49.7762 18.3514C45.4327 16.0366 43.6214 10.9505 45.7298 6.99462C47.8381 3.03513 53.0691 1.70564 57.4126 4.02047C61.7561 6.33531 63.5674 11.4214 61.4554 15.3773H61.4591Z" fill="white"/>
<g style="mix-blend-mode:multiply">
<path d="M50.5659 13.6975C50.5659 14.9862 49.548 16.031 48.2922 16.031C47.0365 16.031 46.0186 14.9862 46.0186 13.6975C46.0186 12.4087 47.0365 11.364 48.2922 11.364C49.548 11.364 50.5659 12.4087 50.5659 13.6975Z" fill="#AAC0DC" fill-opacity="0.5"/>
<path d="M46.6158 23.2132C46.6158 25.2621 44.9013 26.923 42.7864 26.923C40.6715 26.923 38.957 25.2621 38.957 23.2132C38.957 21.1644 40.6715 19.5035 42.7864 19.5035C44.9013 19.5035 46.6158 21.1644 46.6158 23.2132Z" fill="#AAC0DC" fill-opacity="0.5"/>
<path d="M33.8455 21.1778C34.1344 23.6005 32.9849 25.7295 31.278 25.933C29.571 26.1366 27.9531 24.3376 27.6642 21.9148C27.3753 19.4921 28.5249 17.3631 30.2318 17.1595C31.9387 16.956 33.5566 18.755 33.8455 21.1778Z" fill="#AAC0DC" fill-opacity="0.5"/>
<path d="M57.0441 7.28108C57.0709 8.06429 56.5909 8.71641 55.9719 8.73763C55.3529 8.75884 54.8294 8.14113 54.8025 7.35792C54.7757 6.57471 55.2557 5.92259 55.8747 5.90137C56.4937 5.88015 57.0172 6.49787 57.0441 7.28108Z" fill="#AAC0DC" fill-opacity="0.5"/>
<path d="M58.5345 13.9937C59.0163 15.5104 58.4351 17.0487 57.2363 17.4294C56.0376 17.8101 54.6754 16.8892 54.1936 15.3725C53.7118 13.8558 54.293 12.3176 55.4917 11.9368C56.6904 11.5561 58.0527 12.477 58.5345 13.9937Z" fill="#AAC0DC" fill-opacity="0.5"/>
<path d="M46.0221 34.2557C47.8757 34.2374 49.3899 35.3905 49.4041 36.8312C49.4183 38.2718 47.9272 39.4546 46.0736 39.4728C44.2199 39.4911 42.7058 38.3381 42.6916 36.8974C42.6773 35.4567 44.1685 34.274 46.0221 34.2557Z" fill="#AAC0DC" fill-opacity="0.5"/>
<path d="M36.0415 5.03184C37.6051 4.03612 39.525 4.25332 40.3297 5.51697C41.1344 6.78062 40.5192 8.6122 38.9556 9.60792C37.3921 10.6036 35.4722 10.3864 34.6674 9.12279C33.8627 7.85914 34.4779 6.02756 36.0415 5.03184Z" fill="#AAC0DC" fill-opacity="0.5"/>
<path d="M56.6628 31.728C57.7133 31.7177 58.5717 32.3984 58.5801 33.2484C58.5885 34.0985 57.7437 34.796 56.6931 34.8063C55.6426 34.8167 54.7842 34.136 54.7758 33.2859C54.7674 32.4359 55.6123 31.7384 56.6628 31.728Z" fill="#AAC0DC" fill-opacity="0.5"/>
<path d="M39.2314 13.9894C39.9636 14.1824 40.4191 14.8622 40.249 15.5077C40.0788 16.1533 39.3474 16.5202 38.6152 16.3272C37.8831 16.1343 37.4275 15.4545 37.5977 14.8089C37.7678 14.1633 38.4993 13.7964 39.2314 13.9894Z" fill="#AAC0DC" fill-opacity="0.5"/>
<path d="M32.1094 29.4241C32.5102 30.0827 32.3643 30.9031 31.7836 31.2565C31.2029 31.6099 30.4072 31.3625 30.0064 30.7039C29.6057 30.0453 29.7515 29.225 30.3323 28.8716C30.913 28.5182 31.7086 28.7656 32.1094 29.4241Z" fill="#AAC0DC" fill-opacity="0.5"/>
<path d="M37.5653 28.3751C37.9705 28.6563 38.098 29.174 37.85 29.5313C37.6021 29.8886 37.0725 29.9503 36.6673 29.6691C36.2621 29.3879 36.1346 28.8702 36.3826 28.5129C36.6306 28.1556 37.1601 28.0939 37.5653 28.3751Z" fill="#AAC0DC" fill-opacity="0.5"/>
<path d="M31.6189 12.3793C31.407 12.7456 31.0083 12.9112 30.7282 12.7493C30.4482 12.5873 30.3929 12.1591 30.6047 11.7928C30.8166 11.4265 31.2153 11.2609 31.4954 11.4228C31.7754 11.5848 31.8307 12.013 31.6189 12.3793Z" fill="#AAC0DC" fill-opacity="0.5"/>
<path d="M62.2836 22.8687C63.2438 23.1389 63.7722 24.2463 63.4638 25.342C63.1554 26.4377 62.127 27.1069 61.1668 26.8367C60.2066 26.5664 59.6782 25.4591 59.9866 24.3633C60.295 23.2676 61.3234 22.5984 62.2836 22.8687Z" fill="#AAC0DC" fill-opacity="0.5"/>
<path d="M46.2967 2.51481C47.0131 2.71646 47.4459 3.40607 47.2632 4.0551C47.0805 4.70413 46.3516 5.06681 45.6352 4.86516C44.9187 4.66351 44.486 3.9739 44.6686 3.32487C44.8513 2.67584 45.5802 2.31316 46.2967 2.51481Z" fill="#AAC0DC" fill-opacity="0.5"/>
</g>
<path d="M64.8693 11.0124L64.6327 11.4785C59.1266 22.5377 43.6379 33.4883 33.7556 35.9589C31.1229 36.617 29.5672 34.104 29.3877 33.9843C29.5672 34.6824 33.5162 39.5728 33.9949 39.4292C34.5933 39.2497 42.611 34.463 50.8681 28.3001C57.4738 23.3698 62.9546 15.5954 64.8693 12.3244L64.8693 11.0124Z" fill="#050135"/>
<path fill-rule="evenodd" clip-rule="evenodd" d="M26.8765 29.9172C26.9364 29.9172 26.4891 28.9392 26.2782 28.4812C21.3775 35.5993 20.4839 41.2913 25.3006 41.9372C31.9928 42.8345 46.5529 34.4243 57.8215 23.1524C69.0902 11.8804 72.8002 2.01532 66.1081 1.11799C63.8581 0.816299 60.5177 1.67375 56.9132 3.23124C57.2722 3.53041 57.8107 3.82958 58.1697 4.12961C60.3449 3.35814 62.1246 3.08526 63.5537 3.27688C69.2623 4.04234 65.6193 12.936 55.4169 23.1414C45.2144 33.3467 32.316 40.9993 26.6074 40.2339C22.8525 39.7304 23.3341 35.5142 26.8765 29.9172Z" fill="url(#paint9_linear_532_3)"/>
<defs>
<linearGradient id="paint0_linear_532_3" x1="199.071" y1="8.96574" x2="-6.91606" y2="31.3962" gradientUnits="userSpaceOnUse">
<stop stop-color="#03E1FF"/>
<stop offset="1" stop-color="#EB00FF"/>
</linearGradient>
<linearGradient id="paint1_linear_532_3" x1="199.071" y1="8.96574" x2="-6.91606" y2="31.3962" gradientUnits="userSpaceOnUse">
<stop stop-color="#03E1FF"/>
<stop offset="1" stop-color="#EB00FF"/>
</linearGradient>
<linearGradient id="paint2_linear_532_3" x1="199.071" y1="8.96574" x2="-6.91606" y2="31.3962" gradientUnits="userSpaceOnUse">
<stop stop-color="#03E1FF"/>
<stop offset="1" stop-color="#EB00FF"/>
</linearGradient>
<linearGradient id="paint3_linear_532_3" x1="199.071" y1="8.96574" x2="-6.91606" y2="31.3962" gradientUnits="userSpaceOnUse">
<stop stop-color="#03E1FF"/>
<stop offset="1" stop-color="#EB00FF"/>
</linearGradient>
<linearGradient id="paint4_linear_532_3" x1="199.071" y1="8.96574" x2="-6.91606" y2="31.3962" gradientUnits="userSpaceOnUse">
<stop stop-color="#03E1FF"/>
<stop offset="1" stop-color="#EB00FF"/>
</linearGradient>
<linearGradient id="paint5_linear_532_3" x1="199.071" y1="8.96574" x2="-6.91606" y2="31.3962" gradientUnits="userSpaceOnUse">
<stop stop-color="#03E1FF"/>
<stop offset="1" stop-color="#EB00FF"/>
</linearGradient>
<linearGradient id="paint6_linear_532_3" x1="199.071" y1="8.96574" x2="-6.91606" y2="31.3962" gradientUnits="userSpaceOnUse">
<stop stop-color="#03E1FF"/>
<stop offset="1" stop-color="#EB00FF"/>
</linearGradient>
<linearGradient id="paint7_linear_532_3" x1="199.071" y1="8.96574" x2="-6.91606" y2="31.3962" gradientUnits="userSpaceOnUse">
<stop stop-color="#03E1FF"/>
<stop offset="1" stop-color="#EB00FF"/>
</linearGradient>
<radialGradient id="paint8_radial_532_3" cx="0" cy="0" r="1" gradientUnits="userSpaceOnUse" gradientTransform="translate(45.8304 21.243) rotate(28.05) scale(27.644)">
<stop stop-color="white"/>
<stop offset="1" stop-color="#CFE0F3"/>
</radialGradient>
<linearGradient id="paint9_linear_532_3" x1="67.481" y1="-1.30767" x2="28.2276" y2="38.8803" gradientUnits="userSpaceOnUse">
<stop stop-color="#EB00FF"/>
<stop offset="1" stop-color="#03E1FF"/>
</linearGradient>
</defs>
</svg>
