<svg width="48" height="43" viewBox="0 0 48 43" fill="none" xmlns="http://www.w3.org/2000/svg">
<path d="M42.1468 30.7023C36.7238 40.8782 24.0809 44.729 13.9051 39.306C3.7292 33.883 -0.125239 21.2365 5.29778 11.0642C10.7208 0.88838 23.3673 -2.96606 33.5431 2.45696C43.719 7.87998 47.5698 20.5265 42.1468 30.7023Z" fill="url(#paint0_radial_509_34703)"/>
<g style="mix-blend-mode:multiply" opacity="0.1">
<path d="M40.5385 8.50187C44.3893 14.0517 45.074 21.507 41.6796 27.8791C36.8471 36.9465 25.5772 40.3807 16.5098 35.5481C7.44246 30.7156 4.00824 19.4457 8.84078 10.3747C13.6335 1.38709 24.7476 -2.06524 33.7751 2.58617C33.6954 2.5427 33.6193 2.49923 33.5396 2.45938C23.3674 -2.96726 10.7209 0.887176 5.29789 11.063C-0.125134 21.2389 3.72931 33.8817 13.9015 39.3048C24.0774 44.7278 36.7203 40.877 42.1433 30.7011C46.0484 23.3762 45.1464 14.7726 40.5349 8.50187H40.5385Z" fill="#9899BD"/>
</g>
<path opacity="0.4" d="M41.4495 22.0728C37.9827 28.579 29.3863 30.767 22.2462 26.9633C15.106 23.1596 12.1319 14.7986 15.5987 8.29245C19.0655 1.78627 27.6619 -0.401773 34.8021 3.40195C41.9422 7.20567 44.9163 15.5666 41.4495 22.0692V22.0728Z" fill="white"/>
<path opacity="0.6" d="M39.4591 15.3773C37.3507 19.3368 32.1197 20.6663 27.7762 18.3514C23.4327 16.0366 21.6214 10.9505 23.7298 6.99462C25.8381 3.03513 31.0691 1.70564 35.4126 4.02047C39.7561 6.33531 41.5674 11.4214 39.4554 15.3773H39.4591Z" fill="white"/>
<g style="mix-blend-mode:multiply">
<path d="M28.5659 13.6975C28.5659 14.9862 27.548 16.031 26.2922 16.031C25.0365 16.031 24.0186 14.9862 24.0186 13.6975C24.0186 12.4087 25.0365 11.364 26.2922 11.364C27.548 11.364 28.5659 12.4087 28.5659 13.6975Z" fill="#AAC0DC" fill-opacity="0.5"/>
<path d="M24.6158 23.2132C24.6158 25.2621 22.9013 26.923 20.7864 26.923C18.6715 26.923 16.957 25.2621 16.957 23.2132C16.957 21.1644 18.6715 19.5035 20.7864 19.5035C22.9013 19.5035 24.6158 21.1644 24.6158 23.2132Z" fill="#AAC0DC" fill-opacity="0.5"/>
<path d="M11.8455 21.1778C12.1344 23.6005 10.9849 25.7295 9.27796 25.933C7.57103 26.1366 5.9531 24.3376 5.6642 21.9148C5.37531 19.4921 6.52485 17.3631 8.23178 17.1595C9.93871 16.956 11.5566 18.755 11.8455 21.1778Z" fill="#AAC0DC" fill-opacity="0.5"/>
<path d="M35.0441 7.28108C35.0709 8.06429 34.5909 8.71641 33.9719 8.73763C33.3529 8.75884 32.8294 8.14113 32.8025 7.35792C32.7757 6.57471 33.2557 5.92259 33.8747 5.90137C34.4937 5.88015 35.0172 6.49787 35.0441 7.28108Z" fill="#AAC0DC" fill-opacity="0.5"/>
<path d="M36.5345 13.9937C37.0163 15.5104 36.4351 17.0487 35.2363 17.4294C34.0376 17.8101 32.6754 16.8892 32.1936 15.3725C31.7118 13.8558 32.293 12.3176 33.4917 11.9368C34.6904 11.5561 36.0527 12.477 36.5345 13.9937Z" fill="#AAC0DC" fill-opacity="0.5"/>
<path d="M24.0221 34.2557C25.8757 34.2374 27.3899 35.3905 27.4041 36.8312C27.4183 38.2718 25.9272 39.4546 24.0736 39.4728C22.2199 39.4911 20.7058 38.3381 20.6916 36.8974C20.6773 35.4567 22.1685 34.274 24.0221 34.2557Z" fill="#AAC0DC" fill-opacity="0.5"/>
<path d="M14.0415 5.03184C15.6051 4.03612 17.525 4.25332 18.3297 5.51697C19.1344 6.78062 18.5192 8.6122 16.9556 9.60792C15.3921 10.6036 13.4722 10.3864 12.6674 9.12279C11.8627 7.85914 12.4779 6.02756 14.0415 5.03184Z" fill="#AAC0DC" fill-opacity="0.5"/>
<path d="M34.6628 31.728C35.7133 31.7177 36.5717 32.3984 36.5801 33.2484C36.5885 34.0985 35.7437 34.796 34.6931 34.8063C33.6426 34.8167 32.7842 34.136 32.7758 33.2859C32.7674 32.4359 33.6123 31.7384 34.6628 31.728Z" fill="#AAC0DC" fill-opacity="0.5"/>
<path d="M17.2314 13.9894C17.9636 14.1824 18.4191 14.8622 18.249 15.5077C18.0788 16.1533 17.3474 16.5202 16.6152 16.3272C15.8831 16.1343 15.4275 15.4545 15.5977 14.8089C15.7678 14.1633 16.4993 13.7964 17.2314 13.9894Z" fill="#AAC0DC" fill-opacity="0.5"/>
<path d="M10.1094 29.4241C10.5102 30.0827 10.3643 30.9031 9.78362 31.2565C9.2029 31.6099 8.40723 31.3625 8.00645 30.7039C7.60566 30.0453 7.75153 29.225 8.33225 28.8716C8.91297 28.5182 9.70864 28.7656 10.1094 29.4241Z" fill="#AAC0DC" fill-opacity="0.5"/>
<path d="M15.5653 28.3751C15.9705 28.6563 16.098 29.174 15.85 29.5313C15.6021 29.8886 15.0725 29.9503 14.6673 29.6691C14.2621 29.3879 14.1346 28.8702 14.3826 28.5129C14.6306 28.1556 15.1601 28.0939 15.5653 28.3751Z" fill="#AAC0DC" fill-opacity="0.5"/>
<path d="M9.61887 12.3793C9.40703 12.7456 9.00829 12.9112 8.72824 12.7493C8.44819 12.5873 8.39289 12.1591 8.60473 11.7928C8.81656 11.4265 9.2153 11.2609 9.49535 11.4228C9.7754 11.5848 9.8307 12.013 9.61887 12.3793Z" fill="#AAC0DC" fill-opacity="0.5"/>
<path d="M40.2836 22.8687C41.2438 23.1389 41.7722 24.2463 41.4638 25.342C41.1554 26.4377 40.127 27.1069 39.1668 26.8367C38.2066 26.5664 37.6782 25.4591 37.9866 24.3633C38.295 23.2676 39.3234 22.5984 40.2836 22.8687Z" fill="#AAC0DC" fill-opacity="0.5"/>
<path d="M24.2967 2.51481C25.0131 2.71646 25.4459 3.40607 25.2632 4.0551C25.0805 4.70413 24.3516 5.06681 23.6352 4.86516C22.9187 4.66351 22.486 3.9739 22.6686 3.32487C22.8513 2.67584 23.5802 2.31316 24.2967 2.51481Z" fill="#AAC0DC" fill-opacity="0.5"/>
</g>
<path d="M42.8693 11.0124L42.6327 11.4785C37.1266 22.5377 21.6379 33.4883 11.7556 35.9589C9.12288 36.617 7.5672 34.104 7.3877 33.9843C7.5672 34.6824 11.5162 39.5728 11.9949 39.4292C12.5933 39.2497 20.611 34.463 28.8681 28.3001C35.4738 23.3698 40.9546 15.5954 42.8693 12.3244L42.8693 11.0124Z" fill="#050135"/>
<path fill-rule="evenodd" clip-rule="evenodd" d="M4.87655 29.9172C4.93638 29.9172 4.48906 28.9392 4.27821 28.4812C-0.622473 35.5993 -1.51606 41.2913 3.30064 41.9372C9.99278 42.8345 24.5529 34.4243 35.8215 23.1524C47.0902 11.8804 50.8002 2.01532 44.1081 1.11799C41.8581 0.816299 38.5177 1.67375 34.9132 3.23124C35.2722 3.53041 35.8107 3.82958 36.1697 4.12961C38.3449 3.35814 40.1246 3.08526 41.5537 3.27688C47.2623 4.04234 43.6193 12.936 33.4169 23.1414C23.2144 33.3467 10.316 40.9993 4.60736 40.2339C0.852453 39.7304 1.3341 35.5142 4.87655 29.9172Z" fill="url(#paint1_linear_509_34703)"/>
<defs>
<radialGradient id="paint0_radial_509_34703" cx="0" cy="0" r="1" gradientUnits="userSpaceOnUse" gradientTransform="translate(23.8304 21.243) rotate(28.05) scale(27.644)">
<stop stop-color="white"/>
<stop offset="1" stop-color="#CFE0F3"/>
</radialGradient>
<linearGradient id="paint1_linear_509_34703" x1="45.481" y1="-1.30767" x2="6.22763" y2="38.8803" gradientUnits="userSpaceOnUse">
<stop stop-color="#EB00FF"/>
<stop offset="1" stop-color="#03E1FF"/>
</linearGradient>
</defs>
</svg>
