<svg width="24" height="20" viewBox="0 0 24 20" fill="none" xmlns="http://www.w3.org/2000/svg">
<path d="M21.6109 0.173807C21.6109 0.173807 23.7964 -0.67838 23.6142 1.39122C23.5535 2.24342 23.0072 5.22607 22.5822 8.45223L21.1252 18.0089C21.1252 18.0089 21.0038 19.4089 19.9111 19.6524C18.8183 19.8959 17.1792 18.8003 16.8756 18.5567C16.6328 18.3742 12.3226 15.635 10.8048 14.2958C10.3799 13.9306 9.89421 13.2001 10.8655 12.3479L17.2399 6.2609C17.9684 5.53044 18.6969 3.82607 15.6615 5.89567L7.16237 11.6784C7.16237 11.6784 6.19105 12.2871 4.36984 11.7393L0.4238 10.5218C0.4238 10.5218 -1.03319 9.60879 1.45584 8.69568C7.52665 5.83475 14.9937 2.91296 21.6109 0.173807Z" fill="white"/>
</svg>
