<svg width="25" height="20" viewBox="0 0 25 20" fill="none" xmlns="http://www.w3.org/2000/svg">
<path d="M23.8396 2.58458C23.4684 2.75213 23.0868 2.89353 22.697 3.00834C23.1586 2.47699 23.5105 1.85178 23.7253 1.16762C23.7735 1.01427 23.7236 0.846408 23.5997 0.746111C23.476 0.645737 23.3042 0.633714 23.168 0.715859C22.34 1.21571 21.4467 1.57494 20.51 1.78499C19.5664 0.846563 18.2849 0.3125 16.9601 0.3125C14.1636 0.3125 11.8884 2.62817 11.8884 5.47449C11.8884 5.69866 11.9024 5.9216 11.9299 6.14143C8.45974 5.83131 5.23357 4.09523 3.01816 1.3292C2.93921 1.23061 2.81758 1.17747 2.69305 1.18763C2.56845 1.19756 2.4565 1.26908 2.39355 1.379C1.94422 2.16376 1.70667 3.06132 1.70667 3.97454C1.70667 5.21836 2.14297 6.39849 2.91368 7.32063C2.67933 7.23802 2.45193 7.13478 2.23488 7.01214C2.11836 6.94613 1.97615 6.94714 1.86039 7.0147C1.74455 7.08226 1.67192 7.20653 1.66887 7.34235C1.66834 7.36524 1.66834 7.38812 1.66834 7.41131C1.66834 9.26793 2.65007 10.9395 4.15101 11.8505C4.02207 11.8374 3.8932 11.8184 3.76517 11.7935C3.63317 11.7678 3.49744 11.8149 3.40843 11.9174C3.31926 12.0198 3.28977 12.1625 3.33085 12.2928C3.88642 14.0583 5.31679 15.3569 7.04598 15.7528C5.6118 16.6671 3.97169 17.146 2.24997 17.146C1.89072 17.146 1.52941 17.1245 1.1758 17.0819C1.00014 17.0607 0.83217 17.1662 0.772346 17.3363C0.712521 17.5064 0.775927 17.696 0.925374 17.7935C3.1372 19.237 5.69471 20 8.32127 20C13.4848 20 16.7149 17.5217 18.5154 15.4426C20.7605 12.8501 22.0481 9.41872 22.0481 6.02826C22.0481 5.88661 22.046 5.74358 22.0417 5.60101C22.9275 4.92173 23.6901 4.09966 24.3107 3.15479C24.405 3.01128 24.3948 2.82163 24.2855 2.68953C24.1765 2.55735 23.9947 2.51461 23.8396 2.58458Z" fill="white"/>
</svg>
